<?xml version="1.0" encoding="utf-8"?>
<!-- Generator: Adobe Illustrator 26.3.1, SVG Export Plug-In . SVG Version: 6.00 Build 0)  -->
<svg version="1.1" id="レイヤー_2" xmlns="http://www.w3.org/2000/svg" xmlns:xlink="http://www.w3.org/1999/xlink" x="0px"
	 y="0px" viewBox="0 0 317.5 626" style="enable-background:new 0 0 317.5 626;" xml:space="preserve">
<style type="text/css">
	.st0{fill:url(#SVGID_1_);}
	.st1{fill:none;stroke:#000000;stroke-width:2;stroke-linecap:round;stroke-miterlimit:10;}
	.st2{fill:none;stroke:#000000;stroke-width:2;stroke-linecap:round;stroke-linejoin:round;stroke-miterlimit:10;}
</style>
<linearGradient id="SVGID_1_" gradientUnits="userSpaceOnUse" x1="158.8482" y1="13.7035" x2="158.8482" y2="620.9634">
	<stop  offset="0" style="stop-color:#000000"/>
	<stop  offset="0.2188" style="stop-color:#312D18"/>
	<stop  offset="0.451" style="stop-color:#5D562E"/>
	<stop  offset="0.6589" style="stop-color:#7D733F"/>
	<stop  offset="0.8329" style="stop-color:#918548"/>
	<stop  offset="0.9515" style="stop-color:#988C4C"/>
</linearGradient>
<path class="st0" d="M287.8,313c-12.6-9.4-29.2-16.3-48-21c-38.5-10.3-59.2-11.2-82.9-12.2c-10.9-0.5-22.2-1-36.3-2.3
	c-47.5-4.7-67.8-22.9-67.8-60.9c0-33,12.9-71.8,36.4-109.3c22.5-36,52.6-67.9,84.8-89.7c0.5-0.3,0.6-1,0.2-1.4
	c-0.4-0.4-1.1-0.5-1.6-0.2c-32.4,22-62.7,54.1-85.4,90.3c-23.7,37.8-36.7,77-36.7,110.3c0,19.9,5.6,34.6,17.2,44.7
	c11.2,9.8,28.4,15.8,52.6,18.2c14.2,1.4,25.5,1.9,36.5,2.4c25,1.1,46.5,2,89.3,14c0,0,0,0,0,0c12.9,5,28.6,12.7,38.6,23.4
	c13.3,14.2,39.5,47.8-20.7,89.9c-30.5,21.3-41.8,25.4-77.3,43.3C162.7,464.5,92.9,503,49,553.6C25.3,580.9,12.3,607.5,5,626
	c59.7,0,119.4,0,179.1,0c-4.9-7.5-12.1-18.7-14.5-33.4c-5.5-34.6,18.5-84.5,82.6-142c33.4-30,55.2-58.2,59.1-76.8
	C315.4,354.2,311.6,330.6,287.8,313z"/>
<path class="st1" d="M175.4,101.6c4.2,4.1,35.6,4.6,34.7-21.5c-0.1-3.6-4.5-4-4.8-0.1c-1.2,19.3,35.1,38.9,49.1,27.9"/>
<path class="st1" d="M150.6,127.7c0.8,2.1,11.7,29.1,40,35.1c20.6,4.3,36.7-5.2,40.4-7.5"/>
<path class="st1" d="M181.8,123.3c0.3,2.7,0.9,5.7,1.7,9c0.7,2.7,1.4,5.1,2.2,7.3"/>
<path class="st1" d="M210.6,119.5c0.3,2.7,0.9,5.7,1.7,9c0.7,2.7,1.4,5.1,2.2,7.3"/>
<path class="st1" d="M264.1,166.5c2.1,2.5,16.9,33.8,13.7,53.9c-3.3,20.5-19,31.5-23.3,34.7"/>
<path class="st1" d="M234,168c-14.7,5.2-39.4,20.1-52.2,29.8c-10.5,7.9-24.6,19.1-26.4,22c-0.8,1.3-0.5,2.7-0.4,3
	c0.1,1.1,3.5,6.9,11.7,13.6c11,8.9,17.7,11.4,19.6,11.5c0.3,0,1.7,0.1,3.2-0.4c2.3-0.8,26.8-34.2,44.8-47.8"/>
<path class="st2" d="M155.9,224.9c-2.2,5.5-3.4,10.2-4,13.6c-1.1,6.4-1,11.1,0.5,15.4c1.4,4.1,2.9,4.5,3.4,4.6
	c1.5,0.2,2.8-1.2,2.8-1.3c1.1-1.2,1-2.7,1.1-5.5c0-1.5,0-1.8,0.2-4.5c-0.1,2.7,0.1,3.6,1.1,4.8c0.8,0.9,2.6,1.5,3.9,0.9
	c1.1-0.5,1.3-1.7,2.7-2c0.5-0.1,0.9-0.1,1.3,0c1.6,0.2,4.1,0.4,5.1,0.2c1.2-0.3,2.6-1.7,3.6-6.7"/>
<path class="st2" d="M165.5,253c0.2,0.6,1.5,3,1.5,5c0,0.6,0,1.3-0.6,1.9c-1.4,1.6-5.6,4.2-8,4.5c-0.5,0.1-1.5-0.1-2.3-0.6
	c-6.1-4-17.3-54.4-16-58.1c0.3-0.8,0.8-1.4,0.8-1.4c1.6-1.7,4.7-2,6.7-1.4c0,0,1.1,0.4,1.4,0.9c2.1,3.7,3.9,9.5,6,16.3"/>
<path class="st2" d="M157.5,264.4c-0.2,1.9-0.2,4.4,0.7,7.2c1,3.1,3.8,8.9,7.6,8.9c1.1,0,2-0.5,3.1-1.3c3.6-2.3,5.2-5.9,5.9-8.1
	c-0.4,0.3-1.6,1.1-2.8,0.8c-1.4-0.4-2-1.9-2.3-2.9c-0.8-2.1-0.6-4.2-1.2-6.7c-0.1-0.3-0.2-0.8-0.6-1.3c-0.5-0.6-1.2-0.8-1.7-0.9"/>
<path class="st2" d="M160.1,275.8c2.4,1.1,4.7,1.3,5.9,0.6c0.3-0.2,0.9-0.6,1.1-1.3c0.2-0.6,0-1.1,0-1.4c0.3,0,0.7,0,1.2-0.1
	c0.7-0.1,1.2-0.2,1.5-0.4c0.9-0.6,0.9-2,0.9-2.3"/>
</svg>
